<mxfile host="app.diagrams.net" modified="2023-12-12T15:07:19.486Z" agent="Mozilla/5.0 (Windows NT 10.0; Win64; x64) AppleWebKit/537.36 (KHTML, like Gecko) Chrome/120.0.0.0 Safari/537.36" version="22.1.7" etag="puS7zd4rft6kjPj8pb_g" type="github">
  <diagram name="第 1 页" id="eencj1wmLE0SDd2TR_tQ">
    <mxGraphModel>
      <root>
        <mxCell id="0" />
        <mxCell id="1" parent="0" />
      </root>
    </mxGraphModel>
  </diagram>
</mxfile>
